<?xml version="1.0" encoding="UTF-8" standalone="no"?>
<!-- Created with Inkscape (http://www.inkscape.org/) -->

<svg
        width="16"
        height="16"
        viewBox="0 0 4.2333333 4.2333333"
        version="1.1"
        id="svg963"
        xml:space="preserve"
        xmlns="http://www.w3.org/2000/svg"
><defs
     id="defs960" />
    <g
            id="layer1"
            transform="translate(-19.350479,-79.267091)">
    <path
            fill="currentColor"
            style="stroke-width:0.0864342"
            d="m 20.016851,84.93616 c -0.02785,-0.07259 0.0681,-0.605977 0.213232,-1.185282 l 0.263883,-1.053281 -0.335688,-0.309906 c -1.44224,-1.331469 0.242894,-3.502378 2.07396,-2.671815 0.903838,0.409978 1.441984,1.659451 0.817054,1.897047 -0.501174,0.190546 -1.60836,0.04953 -1.710995,-0.217944 -0.07591,-0.197836 0.15275,-0.318014 0.415219,-0.218226 1.143724,0.434843 1.471194,-0.492896 0.363293,-1.029222 -1.51604,-0.733902 -2.791685,0.922389 -1.529866,1.98637 l 0.420688,0.35473 -0.283258,1.073679 -0.283257,1.073681 h 0.982772 c 0.540526,0 0.982544,-0.0097 0.982265,-0.0216 -2.55e-4,-0.01193 -0.116741,-0.449459 -0.258796,-0.972388 -0.371696,-1.368252 -0.369941,-1.378792 0.24594,-1.477274 0.422287,-0.06752 0.532187,0.203798 0.152598,0.376749 l -0.206502,0.09409 0.293109,1.108259 c 0.161212,0.609543 0.274805,1.156876 0.252434,1.216301 -0.06608,0.175506 -2.800309,0.152662 -2.868085,-0.02396 z"
            id="path1027"/></g></svg>
